<svg width="24" height="24" viewBox="0 0 24 24" fill="none" xmlns="http://www.w3.org/2000/svg">
<path d="M7.41781 3.7613C7.82656 4.0463 7.92406 4.6088 7.63906 5.0138L5.53906 8.0138C5.38531 8.2313 5.14531 8.37005 4.87906 8.39255C4.61281 8.41505 4.35031 8.32505 4.16281 8.13755L2.66281 6.63755C2.31406 6.28505 2.31406 5.71505 2.66281 5.36255C3.01156 5.01005 3.58531 5.0138 3.93781 5.36255L4.68031 6.10505L6.16531 3.98255C6.45031 3.5738 7.01281 3.4763 7.41781 3.7613ZM7.41781 9.7613C7.82656 10.0463 7.92406 10.6088 7.63906 11.0138L5.53906 14.0138C5.38531 14.2313 5.14531 14.37 4.87906 14.3925C4.61281 14.415 4.35031 14.325 4.16281 14.1375L2.66281 12.6375C2.31031 12.285 2.31031 11.715 2.66281 11.3663C3.01531 11.0175 3.58531 11.0138 3.93406 11.3663L4.67656 12.1088L6.16156 9.9863C6.44656 9.57755 7.00906 9.48005 7.41406 9.76505L7.41781 9.7613ZM10.8003 6.00005C10.8003 5.3363 11.3366 4.80005 12.0003 4.80005H20.4003C21.0641 4.80005 21.6003 5.3363 21.6003 6.00005C21.6003 6.6638 21.0641 7.20005 20.4003 7.20005H12.0003C11.3366 7.20005 10.8003 6.6638 10.8003 6.00005ZM10.8003 12C10.8003 11.3363 11.3366 10.8 12.0003 10.8H20.4003C21.0641 10.8 21.6003 11.3363 21.6003 12C21.6003 12.6638 21.0641 13.2 20.4003 13.2H12.0003C11.3366 13.2 10.8003 12.6638 10.8003 12ZM8.40031 18C8.40031 17.3363 8.93656 16.8 9.60031 16.8H20.4003C21.0641 16.8 21.6003 17.3363 21.6003 18C21.6003 18.6638 21.0641 19.2 20.4003 19.2H9.60031C8.93656 19.2 8.40031 18.6638 8.40031 18ZM4.80031 16.5C5.62906 16.5 6.30031 17.1713 6.30031 18C6.30031 18.8288 5.62906 19.5 4.80031 19.5C3.97156 19.5 3.30031 18.8288 3.30031 18C3.30031 17.1713 3.97156 16.5 4.80031 16.5Z" fill="black"/>
</svg>
